Verenigde Staten
Animatie
75 minuten

geregisseerd door Cody Cameron
met de stemmen van Ciara Bravo, Karley Scott Collins en Cody Cameron

Het nieuwe avontuur brengt Boog, Elliot en de andere dierenvrienden van het bos naar een circustent. Wanneer Boogs vrienden het jaarlijkse uitstapje van de jongens afzeggen om tijd door te brengen met hun familie, besluit de teleurgestelde beer zelf op pad te gaan. Hij verwisselt van plaats met een grizzly die op hem lijkt en zo belandt hij midden in de ring van een groot circus. Daar valt hij als een blok voor een verleidelijke, Russische artieste, maar langzaamaan beseft Boog dat je misschien niet hoeft te kiezen tussen familie en vriendschap.





General

Format                           : MPEG-4
Format profile                   : Base Media
Codec ID                         : isom
File size                        : 1.45 GiB
Duration                         : 1h 14mn
Overall bit rate                 : 2 787 Kbps
Encoded date                     : UTC 2010-12-26 16:45:54
Tagged date                      : UTC 2010-12-26 16:45:54

Video
ID                               : 1
Format                           : AVC
Format/Info                      : Advanced Video Codec
Format profile                   : High@L4.1
Format settings, CABAC           : Yes
Format settings, ReFrames        : 6 frames
Codec ID                         : avc1
Codec ID/Info                    : Advanced Video Coding
Duration                         : 1h 14mn
Bit rate mode                    : Variable
Bit rate                         : 2 343 Kbps
Maximum bit rate                 : 10.8 Mbps
Width                            : 1 280 pixels
Height                           : 720 pixels
Display aspect ratio             : 16:9
Frame rate mode                  : Constant
Frame rate                       : 23.976 fps
Color space                      : YUV
Chroma subsampling               : 4:2:0
Bit depth                        : 8 bits
Scan type                        : Progressive
Bits/(Pixel*Frame)               : 0.106
Stream size                      : 1.22 GiB (84%)
Title                            : Open Season 3 
Writing library                  : x264 core 98 r1649 c54c47d
Encoding settings                : cabac=1 / ref=6 / deblock=1:-1:-1 / analyse=0x3:0x113 / me=umh / subme=7 / psy=1 / psy_rd=1.00:0.15 / mixed_ref=1 / me_range=20 / chroma_me=1 / trellis=1 / 8x8dct=1 / cqm=0 / deadzone=21,11 / fast_pskip=0 / chroma_qp_offset=-3 / threads=3 / sliced_threads=0 / nr=0 / decimate=1 / interlaced=0 / constrained_intra=0 / bframes=3 / b_pyramid=2 / b_adapt=2 / b_bias=0 / direct=1 / weightb=1 / weightp=2 / keyint=250 / keyint_min=25 / scenecut=40 / intra_refresh=0 / rc_lookahead=45 / rc=2pass / mbtree=1 / bitrate=2343 / ratetol=1.0 / qcomp=0.60 / qpmin=10 / qpmax=51 / qpstep=4 / cplxblur=20.0 / qblur=0.5 / ip_ratio=1.40 / aq=1:1.00
Encoded date                     : UTC 2010-12-26 16:45:54
Tagged date                      : UTC 2010-12-26 16:51:10

Audio
ID                               : 2
Format                           : AAC
Format/Info                      : Advanced Audio Codec
Format version                   : Version 4
Format profile                   : LC
Format settings, SBR             : No
Codec ID                         : 40
Duration                         : 1h 14mn
Bit rate mode                    : Variable
Bit rate                         : 445 Kbps
Maximum bit rate                 : 510 Kbps
Channel(s)                       : 6 channels
Channel positions                : Front: L C R, Side: L R, LFE
Sampling rate                    : 48.0 KHz
Compression mode                 : Lossy
Stream size                      : 237 MiB (16%)
Title                            : Open Season 3 - GreatMagician
Language                         : English
Encoded date                     : UTC 2010-12-26 16:49:37
Tagged date                      : UTC 2010-12-26 16:51:10

Deze films is engels gesproken en bevat als extra file de nederlandse ondertiteling in .srt formaat (zelf vertaald en gesynced)